<svg width="467" height="660" viewBox="0 0 467 660" fill="none" xmlns="http://www.w3.org/2000/svg">
<rect width="467" height="660" rx="15" fill="black"/>
<mask id="mask0_660_11170" style="mask-type:alpha" maskUnits="userSpaceOnUse" x="0" y="0" width="467" height="660">
<rect width="467" height="660" rx="15" fill="#ECECEC"/>
</mask>
<g mask="url(#mask0_660_11170)">
<g filter="url(#filter0_fn_660_11170)">
<ellipse cx="230" cy="104" rx="99" ry="177" fill="url(#paint0_linear_660_11170)"/>
<path d="M39 766C39 765.448 39 764.896 39.2918 738.946C39.5836 712.997 40.1672 661.666 41.4551 630.872C42.743 600.077 44.7175 591.375 47.4684 582.937C52.8831 566.329 62.3183 551.097 73.202 536.63C84.2618 521.929 98.5607 510.508 111.052 500.511C121.915 491.817 132.918 486.858 142.836 483.021C147.8 481.101 152.883 479.876 175.742 478.296C198.6 476.716 239.145 474.983 271.58 466.178C304.014 457.373 327.111 441.549 340.856 429.177C361.153 410.907 363.249 395.634 365.203 386.021C367.728 373.603 366.211 363.129 363.975 357.052C361.557 350.48 353.764 345.895 334.175 337.888C318.682 331.557 290.758 323.42 275.264 318.177C257.073 312.022 253.116 308.652 250.355 305.43C244.228 298.279 246.736 283.963 250.839 269.613C253.269 261.112 270.739 243.904 295.222 218.933C315.161 198.596 331.541 188.977 343.461 182.697C350.517 179.296 359.614 175.463 369.913 172.249C380.212 169.035 391.436 166.555 403 164" stroke="url(#paint1_linear_660_11170)" stroke-width="200" stroke-linecap="round"/>
<g filter="url(#filter1_f_660_11170)">
<ellipse cx="421" cy="656.5" rx="136" ry="145.5" fill="url(#paint2_linear_660_11170)"/>
</g>
<ellipse cx="44" cy="65.5" rx="161" ry="171.5" fill="#7E87DD"/>
<ellipse cx="418.5" cy="102.5" rx="97.5" ry="168.5" fill="url(#paint3_linear_660_11170)"/>
<ellipse cx="143" cy="248" rx="62" ry="66" fill="#000FB2"/>
<ellipse cx="48" cy="377.5" rx="116" ry="114.5" fill="url(#paint4_linear_660_11170)"/>
</g>
<path d="M61.3513 36.0952L58.4069 33.1509C100.119 24.3179 78.5264 94.4917 41.7223 47.8726L44.6663 45.4191L52.5548 53.5919C77.0911 74.6931 88.3409 33.1509 61.3513 36.0952Z" fill="white"/>
<path d="M68.7121 47.8726L65.7678 50.8171L56.169 42.1782C52.7759 39.1244 48.9074 35.9624 44.348 36.1891C30.7555 36.8651 28.4856 60.9965 48.5921 60.1409L51.046 63.0852C16.665 68.1959 27.1506 24.4805 50.8542 33.1389C53.6951 34.1766 56.0895 36.1518 58.306 38.2098L68.7121 47.8726Z" fill="white"/>
<rect x="50.4316" y="40.834" width="18.5804" height="3.92567" rx="0.283144" transform="rotate(45.1572 50.4316 40.834)" fill="white"/>
</g>
<path d="M50.4091 492V480.364H51.8182V490.75H57.2273V492H50.4091ZM62.7727 492.182C61.9848 492.182 61.2936 491.994 60.6989 491.619C60.108 491.244 59.6458 490.72 59.3125 490.045C58.983 489.371 58.8182 488.583 58.8182 487.682C58.8182 486.773 58.983 485.979 59.3125 485.301C59.6458 484.623 60.108 484.097 60.6989 483.722C61.2936 483.347 61.9848 483.159 62.7727 483.159C63.5606 483.159 64.25 483.347 64.8409 483.722C65.4356 484.097 65.8977 484.623 66.2273 485.301C66.5606 485.979 66.7273 486.773 66.7273 487.682C66.7273 488.583 66.5606 489.371 66.2273 490.045C65.8977 490.72 65.4356 491.244 64.8409 491.619C64.25 491.994 63.5606 492.182 62.7727 492.182ZM62.7727 490.977C63.3712 490.977 63.8636 490.824 64.25 490.517C64.6364 490.21 64.9223 489.807 65.108 489.307C65.2936 488.807 65.3864 488.265 65.3864 487.682C65.3864 487.098 65.2936 486.555 65.108 486.051C64.9223 485.547 64.6364 485.14 64.25 484.83C63.8636 484.519 63.3712 484.364 62.7727 484.364C62.1742 484.364 61.6818 484.519 61.2955 484.83C60.9091 485.14 60.6231 485.547 60.4375 486.051C60.2519 486.555 60.1591 487.098 60.1591 487.682C60.1591 488.265 60.2519 488.807 60.4375 489.307C60.6231 489.807 60.9091 490.21 61.2955 490.517C61.6818 490.824 62.1742 490.977 62.7727 490.977ZM68.7741 492V483.273H70.0696V484.591H70.1605C70.3196 484.159 70.6075 483.809 71.0241 483.54C71.4408 483.271 71.9105 483.136 72.4332 483.136C72.5317 483.136 72.6548 483.138 72.8026 483.142C72.9503 483.146 73.062 483.152 73.1378 483.159V484.523C73.0923 484.511 72.9882 484.494 72.8253 484.472C72.6662 484.445 72.4976 484.432 72.3196 484.432C71.8954 484.432 71.5166 484.521 71.1832 484.699C70.8537 484.873 70.5923 485.116 70.3991 485.426C70.2098 485.733 70.1151 486.083 70.1151 486.477V492H68.7741ZM78.1207 492.182C77.2798 492.182 76.5545 491.996 75.9446 491.625C75.3385 491.25 74.8707 490.727 74.5412 490.057C74.2154 489.383 74.0526 488.598 74.0526 487.705C74.0526 486.811 74.2154 486.023 74.5412 485.341C74.8707 484.655 75.3291 484.121 75.9162 483.739C76.5071 483.352 77.1965 483.159 77.9844 483.159C78.4389 483.159 78.8878 483.235 79.331 483.386C79.7741 483.538 80.1776 483.784 80.5412 484.125C80.9048 484.462 81.1946 484.909 81.4105 485.466C81.6264 486.023 81.7344 486.708 81.7344 487.523V488.091H75.0071V486.932H80.3707C80.3707 486.439 80.2723 486 80.0753 485.614C79.8821 485.227 79.6056 484.922 79.2457 484.699C78.8897 484.475 78.4692 484.364 77.9844 484.364C77.4503 484.364 76.9882 484.496 76.598 484.761C76.2116 485.023 75.9143 485.364 75.706 485.784C75.4976 486.205 75.3935 486.655 75.3935 487.136V487.909C75.3935 488.568 75.5071 489.127 75.7344 489.585C75.9654 490.04 76.2855 490.386 76.6946 490.625C77.1037 490.86 77.5791 490.977 78.1207 490.977C78.473 490.977 78.7912 490.928 79.0753 490.83C79.3632 490.727 79.6113 490.576 79.8196 490.375C80.0279 490.17 80.1889 489.917 80.3026 489.614L81.598 489.977C81.4616 490.417 81.2325 490.803 80.9105 491.136C80.5885 491.466 80.1908 491.723 79.7173 491.909C79.2438 492.091 78.7116 492.182 78.1207 492.182ZM83.7741 492V483.273H85.0696V484.636H85.1832C85.3651 484.17 85.6586 483.809 86.0639 483.551C86.4692 483.29 86.956 483.159 87.5241 483.159C88.0999 483.159 88.5791 483.29 88.9616 483.551C89.348 483.809 89.6491 484.17 89.8651 484.636H89.956C90.1795 484.186 90.5147 483.828 90.9616 483.562C91.4086 483.294 91.9446 483.159 92.5696 483.159C93.3499 483.159 93.9882 483.403 94.4844 483.892C94.9806 484.377 95.2287 485.133 95.2287 486.159V492H93.8878V486.159C93.8878 485.515 93.7116 485.055 93.3594 484.778C93.0071 484.502 92.5923 484.364 92.1151 484.364C91.5014 484.364 91.026 484.549 90.6889 484.92C90.3518 485.288 90.1832 485.754 90.1832 486.318V492H88.8196V486.023C88.8196 485.527 88.6586 485.127 88.3366 484.824C88.0147 484.517 87.5999 484.364 87.0923 484.364C86.7438 484.364 86.4181 484.456 86.1151 484.642C85.8158 484.828 85.5734 485.085 85.3878 485.415C85.206 485.741 85.1151 486.117 85.1151 486.545V492H83.7741ZM102.18 492V483.273H103.521V492H102.18ZM102.862 481.818C102.601 481.818 102.375 481.729 102.186 481.551C102 481.373 101.908 481.159 101.908 480.909C101.908 480.659 102 480.445 102.186 480.267C102.375 480.089 102.601 480 102.862 480C103.124 480 103.347 480.089 103.533 480.267C103.722 480.445 103.817 480.659 103.817 480.909C103.817 481.159 103.722 481.373 103.533 481.551C103.347 481.729 103.124 481.818 102.862 481.818ZM105.977 495.273V483.273H107.273V484.659H107.432C107.53 484.508 107.667 484.314 107.841 484.08C108.019 483.841 108.273 483.629 108.602 483.443C108.936 483.254 109.386 483.159 109.955 483.159C110.689 483.159 111.337 483.343 111.898 483.71C112.458 484.078 112.896 484.598 113.21 485.273C113.525 485.947 113.682 486.742 113.682 487.659C113.682 488.583 113.525 489.384 113.21 490.062C112.896 490.737 112.46 491.259 111.903 491.631C111.347 491.998 110.705 492.182 109.977 492.182C109.417 492.182 108.968 492.089 108.631 491.903C108.294 491.714 108.034 491.5 107.852 491.261C107.67 491.019 107.53 490.818 107.432 490.659H107.318V495.273H105.977ZM107.295 487.636C107.295 488.295 107.392 488.877 107.585 489.381C107.778 489.881 108.061 490.273 108.432 490.557C108.803 490.837 109.258 490.977 109.795 490.977C110.356 490.977 110.824 490.83 111.199 490.534C111.578 490.235 111.862 489.833 112.051 489.33C112.244 488.822 112.341 488.258 112.341 487.636C112.341 487.023 112.246 486.47 112.057 485.977C111.871 485.481 111.589 485.089 111.21 484.801C110.835 484.509 110.364 484.364 109.795 484.364C109.25 484.364 108.792 484.502 108.42 484.778C108.049 485.051 107.769 485.434 107.58 485.926C107.39 486.415 107.295 486.985 107.295 487.636ZM121.909 485.227L120.705 485.568C120.629 485.367 120.517 485.172 120.369 484.983C120.225 484.79 120.028 484.631 119.778 484.506C119.528 484.381 119.208 484.318 118.818 484.318C118.284 484.318 117.839 484.441 117.483 484.688C117.131 484.93 116.955 485.239 116.955 485.614C116.955 485.947 117.076 486.21 117.318 486.403C117.561 486.597 117.939 486.758 118.455 486.886L119.75 487.205C120.53 487.394 121.112 487.684 121.494 488.074C121.877 488.46 122.068 488.958 122.068 489.568C122.068 490.068 121.924 490.515 121.636 490.909C121.352 491.303 120.955 491.614 120.443 491.841C119.932 492.068 119.337 492.182 118.659 492.182C117.769 492.182 117.032 491.989 116.449 491.602C115.866 491.216 115.496 490.652 115.341 489.909L116.614 489.591C116.735 490.061 116.964 490.413 117.301 490.648C117.642 490.883 118.087 491 118.636 491C119.261 491 119.758 490.867 120.125 490.602C120.496 490.333 120.682 490.011 120.682 489.636C120.682 489.333 120.576 489.08 120.364 488.875C120.152 488.667 119.826 488.511 119.386 488.409L117.932 488.068C117.133 487.879 116.545 487.585 116.17 487.188C115.799 486.786 115.614 486.284 115.614 485.682C115.614 485.189 115.752 484.754 116.028 484.375C116.309 483.996 116.689 483.699 117.17 483.483C117.655 483.267 118.205 483.159 118.818 483.159C119.682 483.159 120.36 483.348 120.852 483.727C121.348 484.106 121.701 484.606 121.909 485.227ZM129.587 488.432V483.273H130.928V492H129.587V490.523H129.496C129.291 490.966 128.973 491.343 128.541 491.653C128.109 491.96 127.564 492.114 126.905 492.114C126.359 492.114 125.875 491.994 125.45 491.756C125.026 491.513 124.693 491.15 124.45 490.665C124.208 490.176 124.087 489.561 124.087 488.818V483.273H125.428V488.727C125.428 489.364 125.606 489.871 125.962 490.25C126.321 490.629 126.78 490.818 127.337 490.818C127.67 490.818 128.009 490.733 128.354 490.562C128.702 490.392 128.994 490.131 129.229 489.778C129.467 489.426 129.587 488.977 129.587 488.432ZM133.384 492V483.273H134.679V484.636H134.793C134.974 484.17 135.268 483.809 135.673 483.551C136.079 483.29 136.565 483.159 137.134 483.159C137.709 483.159 138.188 483.29 138.571 483.551C138.957 483.809 139.259 484.17 139.474 484.636H139.565C139.789 484.186 140.124 483.828 140.571 483.562C141.018 483.294 141.554 483.159 142.179 483.159C142.959 483.159 143.598 483.403 144.094 483.892C144.59 484.377 144.838 485.133 144.838 486.159V492H143.497V486.159C143.497 485.515 143.321 485.055 142.969 484.778C142.616 484.502 142.202 484.364 141.724 484.364C141.111 484.364 140.635 484.549 140.298 484.92C139.961 485.288 139.793 485.754 139.793 486.318V492H138.429V486.023C138.429 485.527 138.268 485.127 137.946 484.824C137.624 484.517 137.209 484.364 136.702 484.364C136.353 484.364 136.027 484.456 135.724 484.642C135.425 484.828 135.183 485.085 134.997 485.415C134.815 485.741 134.724 486.117 134.724 486.545V492H133.384Z" fill="white"/>
<path d="M51.397 540V518.182H54.6889V537.166H64.5753V540H51.397ZM74.9677 540.33C73.4336 540.33 72.0948 539.979 70.9513 539.276C69.8079 538.572 68.9201 537.589 68.288 536.325C67.6559 535.06 67.3398 533.583 67.3398 531.893C67.3398 530.195 67.6559 528.711 68.288 527.44C68.9201 526.168 69.8079 525.181 70.9513 524.478C72.0948 523.775 73.4336 523.423 74.9677 523.423C76.5018 523.423 77.8406 523.775 78.984 524.478C80.1275 525.181 81.0153 526.168 81.6474 527.44C82.2795 528.711 82.5955 530.195 82.5955 531.893C82.5955 533.583 82.2795 535.06 81.6474 536.325C81.0153 537.589 80.1275 538.572 78.984 539.276C77.8406 539.979 76.5018 540.33 74.9677 540.33ZM74.9783 537.656C75.9727 537.656 76.7965 537.393 77.4499 536.868C78.1033 536.342 78.5863 535.643 78.8988 534.769C79.2184 533.896 79.3782 532.933 79.3782 531.882C79.3782 530.838 79.2184 529.879 78.8988 529.006C78.5863 528.125 78.1033 527.418 77.4499 526.886C76.7965 526.353 75.9727 526.087 74.9783 526.087C73.9769 526.087 73.146 526.353 72.4854 526.886C71.832 527.418 71.3455 528.125 71.0259 529.006C70.7134 529.879 70.5572 530.838 70.5572 531.882C70.5572 532.933 70.7134 533.896 71.0259 534.769C71.3455 535.643 71.832 536.342 72.4854 536.868C73.146 537.393 73.9769 537.656 74.9783 537.656ZM86.1511 540V523.636H89.2299V526.236H89.4004C89.6987 525.355 90.2243 524.663 90.9771 524.158C91.737 523.647 92.5964 523.391 93.5552 523.391C93.7541 523.391 93.9885 523.398 94.2583 523.413C94.5353 523.427 94.752 523.445 94.9082 523.466V526.513C94.7804 526.477 94.5531 526.438 94.2264 526.396C93.8997 526.346 93.573 526.321 93.2463 526.321C92.4934 526.321 91.8223 526.481 91.2328 526.8C90.6504 527.113 90.1887 527.55 89.8478 528.111C89.5069 528.665 89.3365 529.297 89.3365 530.007V540H86.1511ZM104.131 540.33C102.519 540.33 101.131 539.986 99.9659 539.297C98.8082 538.601 97.9134 537.624 97.2812 536.367C96.6562 535.103 96.3438 533.622 96.3438 531.925C96.3438 530.249 96.6562 528.771 97.2812 527.493C97.9134 526.214 98.794 525.217 99.9233 524.499C101.06 523.782 102.388 523.423 103.908 523.423C104.831 523.423 105.726 523.576 106.592 523.881C107.459 524.187 108.237 524.666 108.925 525.32C109.614 525.973 110.158 526.822 110.555 527.866C110.953 528.903 111.152 530.163 111.152 531.648V532.777H98.1442V530.391H108.031C108.031 529.553 107.86 528.81 107.519 528.164C107.178 527.511 106.699 526.996 106.081 526.619C105.47 526.243 104.753 526.055 103.929 526.055C103.034 526.055 102.253 526.275 101.585 526.715C100.925 527.148 100.413 527.717 100.051 528.42C99.696 529.116 99.5185 529.872 99.5185 530.689V532.553C99.5185 533.647 99.7102 534.577 100.094 535.344C100.484 536.112 101.028 536.697 101.724 537.102C102.42 537.5 103.233 537.699 104.163 537.699C104.767 537.699 105.317 537.614 105.815 537.443C106.312 537.266 106.741 537.003 107.104 536.655C107.466 536.307 107.743 535.877 107.935 535.366L110.95 535.909C110.708 536.797 110.275 537.575 109.65 538.242C109.032 538.903 108.254 539.418 107.317 539.787C106.386 540.149 105.325 540.33 104.131 540.33ZM114.686 540V523.636H117.744V526.3H117.946C118.287 525.398 118.845 524.695 119.619 524.19C120.393 523.679 121.32 523.423 122.399 523.423C123.493 523.423 124.409 523.679 125.148 524.19C125.894 524.702 126.444 525.405 126.799 526.3H126.97C127.36 525.426 127.982 524.73 128.834 524.212C129.686 523.686 130.702 523.423 131.881 523.423C133.365 523.423 134.576 523.888 135.514 524.819C136.458 525.749 136.931 527.152 136.931 529.027V540H133.745V529.325C133.745 528.217 133.443 527.415 132.84 526.918C132.236 526.42 131.515 526.172 130.677 526.172C129.64 526.172 128.834 526.491 128.259 527.131C127.683 527.763 127.396 528.576 127.396 529.57V540H124.221V529.123C124.221 528.235 123.944 527.521 123.39 526.982C122.836 526.442 122.115 526.172 121.227 526.172C120.624 526.172 120.066 526.332 119.555 526.651C119.051 526.964 118.642 527.401 118.33 527.962C118.024 528.523 117.872 529.173 117.872 529.911V540H114.686ZM149.139 540V523.636H152.325V540H149.139ZM150.748 521.112C150.194 521.112 149.718 520.927 149.32 520.558C148.93 520.181 148.735 519.734 148.735 519.215C148.735 518.69 148.93 518.242 149.32 517.873C149.718 517.496 150.194 517.308 150.748 517.308C151.302 517.308 151.774 517.496 152.165 517.873C152.563 518.242 152.762 518.69 152.762 519.215C152.762 519.734 152.563 520.181 152.165 520.558C151.774 520.927 151.302 521.112 150.748 521.112ZM156.61 546.136V523.636H159.721V526.289H159.987C160.172 525.948 160.438 525.554 160.786 525.107C161.134 524.659 161.617 524.268 162.235 523.935C162.853 523.594 163.67 523.423 164.685 523.423C166.006 523.423 167.185 523.757 168.222 524.425C169.259 525.092 170.072 526.055 170.662 527.312C171.259 528.569 171.557 530.082 171.557 531.85C171.557 533.619 171.262 535.135 170.673 536.399C170.083 537.656 169.273 538.626 168.244 539.308C167.214 539.982 166.038 540.32 164.717 540.32C163.723 540.32 162.91 540.153 162.278 539.819C161.653 539.485 161.163 539.094 160.808 538.647C160.452 538.2 160.179 537.802 159.987 537.454H159.795V546.136H156.61ZM159.732 531.818C159.732 532.969 159.898 533.977 160.232 534.844C160.566 535.71 161.049 536.388 161.681 536.879C162.313 537.362 163.087 537.603 164.004 537.603C164.955 537.603 165.751 537.351 166.39 536.847C167.029 536.335 167.512 535.643 167.839 534.769C168.173 533.896 168.339 532.912 168.339 531.818C168.339 530.739 168.176 529.769 167.849 528.91C167.53 528.05 167.047 527.372 166.401 526.875C165.761 526.378 164.962 526.129 164.004 526.129C163.08 526.129 162.299 526.367 161.66 526.843C161.028 527.319 160.548 527.983 160.222 528.835C159.895 529.687 159.732 530.682 159.732 531.818ZM187.388 527.631L184.501 528.143C184.38 527.773 184.188 527.422 183.925 527.088C183.67 526.754 183.322 526.481 182.881 526.268C182.441 526.055 181.891 525.948 181.23 525.948C180.328 525.948 179.575 526.151 178.972 526.555C178.368 526.953 178.066 527.468 178.066 528.1C178.066 528.647 178.268 529.087 178.673 529.421C179.078 529.755 179.732 530.028 180.634 530.241L183.233 530.838C184.739 531.186 185.861 531.722 186.599 532.447C187.338 533.171 187.707 534.112 187.707 535.27C187.707 536.25 187.423 537.124 186.855 537.891C186.294 538.651 185.509 539.247 184.501 539.68C183.499 540.114 182.338 540.33 181.017 540.33C179.185 540.33 177.69 539.94 176.532 539.158C175.374 538.37 174.664 537.251 174.401 535.803L177.48 535.334C177.672 536.136 178.066 536.744 178.663 537.156C179.259 537.56 180.037 537.763 180.996 537.763C182.04 537.763 182.874 537.546 183.499 537.113C184.124 536.673 184.437 536.136 184.437 535.504C184.437 534.993 184.245 534.563 183.862 534.215C183.485 533.867 182.906 533.604 182.125 533.427L179.355 532.82C177.828 532.472 176.699 531.918 175.967 531.158C175.243 530.398 174.881 529.435 174.881 528.271C174.881 527.305 175.151 526.46 175.69 525.735C176.23 525.011 176.976 524.446 177.928 524.041C178.879 523.629 179.969 523.423 181.198 523.423C182.967 523.423 184.359 523.807 185.374 524.574C186.39 525.334 187.061 526.353 187.388 527.631ZM201.575 533.214V523.636H204.771V540H201.639V537.166H201.469C201.093 538.04 200.489 538.768 199.658 539.35C198.834 539.925 197.808 540.213 196.579 540.213C195.528 540.213 194.597 539.982 193.788 539.521C192.985 539.052 192.353 538.359 191.892 537.443C191.437 536.527 191.21 535.394 191.21 534.045V523.636H194.395V533.661C194.395 534.776 194.704 535.664 195.322 536.325C195.94 536.985 196.742 537.315 197.73 537.315C198.326 537.315 198.919 537.166 199.509 536.868C200.105 536.57 200.599 536.119 200.99 535.515C201.387 534.911 201.583 534.144 201.575 533.214ZM209.051 540V523.636H212.109V526.3H212.311C212.652 525.398 213.21 524.695 213.984 524.19C214.758 523.679 215.685 523.423 216.765 523.423C217.858 523.423 218.775 523.679 219.513 524.19C220.259 524.702 220.809 525.405 221.164 526.3H221.335C221.725 525.426 222.347 524.73 223.199 524.212C224.051 523.686 225.067 523.423 226.246 523.423C227.73 523.423 228.941 523.888 229.879 524.819C230.824 525.749 231.296 527.152 231.296 529.027V540H228.11V529.325C228.11 528.217 227.809 527.415 227.205 526.918C226.601 526.42 225.88 526.172 225.042 526.172C224.005 526.172 223.199 526.491 222.624 527.131C222.049 527.763 221.761 528.576 221.761 529.57V540H218.586V529.123C218.586 528.235 218.309 527.521 217.755 526.982C217.201 526.442 216.48 526.172 215.593 526.172C214.989 526.172 214.431 526.332 213.92 526.651C213.416 526.964 213.007 527.401 212.695 527.962C212.39 528.523 212.237 529.173 212.237 529.911V540H209.051ZM249.63 540.32C248.309 540.32 247.13 539.982 246.093 539.308C245.064 538.626 244.254 537.656 243.664 536.399C243.082 535.135 242.791 533.619 242.791 531.85C242.791 530.082 243.086 528.569 243.675 527.312C244.272 526.055 245.088 525.092 246.125 524.425C247.162 523.757 248.338 523.423 249.652 523.423C250.667 523.423 251.484 523.594 252.102 523.935C252.727 524.268 253.21 524.659 253.551 525.107C253.899 525.554 254.169 525.948 254.36 526.289H254.552V518.182H257.738V540H254.627V537.454H254.36C254.169 537.802 253.892 538.2 253.529 538.647C253.174 539.094 252.684 539.485 252.059 539.819C251.434 540.153 250.625 540.32 249.63 540.32ZM250.333 537.603C251.25 537.603 252.024 537.362 252.656 536.879C253.295 536.388 253.778 535.71 254.105 534.844C254.439 533.977 254.605 532.969 254.605 531.818C254.605 530.682 254.442 529.687 254.115 528.835C253.789 527.983 253.309 527.319 252.677 526.843C252.045 526.367 251.264 526.129 250.333 526.129C249.375 526.129 248.576 526.378 247.936 526.875C247.297 527.372 246.814 528.05 246.488 528.91C246.168 529.769 246.008 530.739 246.008 531.818C246.008 532.912 246.172 533.896 246.498 534.769C246.825 535.643 247.308 536.335 247.947 536.847C248.593 537.351 249.389 537.603 250.333 537.603ZM269.177 540.33C267.643 540.33 266.304 539.979 265.16 539.276C264.017 538.572 263.129 537.589 262.497 536.325C261.865 535.06 261.549 533.583 261.549 531.893C261.549 530.195 261.865 528.711 262.497 527.44C263.129 526.168 264.017 525.181 265.16 524.478C266.304 523.775 267.643 523.423 269.177 523.423C270.711 523.423 272.05 523.775 273.193 524.478C274.336 525.181 275.224 526.168 275.856 527.44C276.488 528.711 276.805 530.195 276.805 531.893C276.805 533.583 276.488 535.06 275.856 536.325C275.224 537.589 274.336 538.572 273.193 539.276C272.05 539.979 270.711 540.33 269.177 540.33ZM269.187 537.656C270.182 537.656 271.006 537.393 271.659 536.868C272.312 536.342 272.795 535.643 273.108 534.769C273.427 533.896 273.587 532.933 273.587 531.882C273.587 530.838 273.427 529.879 273.108 529.006C272.795 528.125 272.312 527.418 271.659 526.886C271.006 526.353 270.182 526.087 269.187 526.087C268.186 526.087 267.355 526.353 266.694 526.886C266.041 527.418 265.555 528.125 265.235 529.006C264.922 529.879 264.766 530.838 264.766 531.882C264.766 532.933 264.922 533.896 265.235 534.769C265.555 535.643 266.041 536.342 266.694 536.868C267.355 537.393 268.186 537.656 269.187 537.656ZM283.545 518.182V540H280.36V518.182H283.545ZM294.724 540.33C293.189 540.33 291.851 539.979 290.707 539.276C289.564 538.572 288.676 537.589 288.044 536.325C287.412 535.06 287.096 533.583 287.096 531.893C287.096 530.195 287.412 528.711 288.044 527.44C288.676 526.168 289.564 525.181 290.707 524.478C291.851 523.775 293.189 523.423 294.724 523.423C296.258 523.423 297.596 523.775 298.74 524.478C299.883 525.181 300.771 526.168 301.403 527.44C302.035 528.711 302.351 530.195 302.351 531.893C302.351 533.583 302.035 535.06 301.403 536.325C300.771 537.589 299.883 538.572 298.74 539.276C297.596 539.979 296.258 540.33 294.724 540.33ZM294.734 537.656C295.729 537.656 296.552 537.393 297.206 536.868C297.859 536.342 298.342 535.643 298.655 534.769C298.974 533.896 299.134 532.933 299.134 531.882C299.134 530.838 298.974 529.879 298.655 529.006C298.342 528.125 297.859 527.418 297.206 526.886C296.552 526.353 295.729 526.087 294.734 526.087C293.733 526.087 292.902 526.353 292.241 526.886C291.588 527.418 291.101 528.125 290.782 529.006C290.469 529.879 290.313 530.838 290.313 531.882C290.313 532.933 290.469 533.896 290.782 534.769C291.101 535.643 291.588 536.342 292.241 536.868C292.902 537.393 293.733 537.656 294.734 537.656ZM305.907 540V523.636H308.986V526.236H309.156C309.455 525.355 309.98 524.663 310.733 524.158C311.493 523.647 312.352 523.391 313.311 523.391C313.51 523.391 313.744 523.398 314.014 523.413C314.291 523.427 314.508 523.445 314.664 523.466V526.513C314.536 526.477 314.309 526.438 313.982 526.396C313.656 526.346 313.329 526.321 313.002 526.321C312.249 526.321 311.578 526.481 310.989 526.8C310.406 527.113 309.945 527.55 309.604 528.111C309.263 528.665 309.092 529.297 309.092 530.007V540H305.907ZM63.4034 563.631L60.5163 564.143C60.3956 563.773 60.2038 563.422 59.9411 563.088C59.6854 562.754 59.3374 562.481 58.897 562.268C58.4567 562.055 57.9063 561.948 57.2457 561.948C56.3438 561.948 55.5909 562.151 54.9872 562.555C54.3835 562.953 54.0817 563.468 54.0817 564.1C54.0817 564.647 54.2841 565.087 54.6889 565.421C55.0938 565.755 55.7472 566.028 56.6491 566.241L59.2486 566.838C60.7543 567.186 61.8764 567.722 62.6151 568.447C63.3537 569.171 63.723 570.112 63.723 571.27C63.723 572.25 63.4389 573.124 62.8707 573.891C62.3097 574.651 61.5249 575.247 60.5163 575.68C59.5149 576.114 58.3537 576.33 57.0327 576.33C55.2003 576.33 53.7053 575.94 52.5476 575.158C51.3899 574.37 50.6797 573.251 50.4169 571.803L53.4957 571.334C53.6875 572.136 54.0817 572.744 54.6783 573.156C55.2749 573.56 56.0526 573.763 57.0114 573.763C58.0554 573.763 58.8899 573.546 59.5149 573.113C60.1399 572.673 60.4524 572.136 60.4524 571.504C60.4524 570.993 60.2607 570.563 59.8771 570.215C59.5007 569.867 58.9219 569.604 58.1406 569.427L55.3707 568.82C53.8438 568.472 52.7145 567.918 51.983 567.158C51.2585 566.398 50.8963 565.435 50.8963 564.271C50.8963 563.305 51.1662 562.46 51.706 561.735C52.2457 561.011 52.9915 560.446 53.9432 560.041C54.8949 559.629 55.9851 559.423 57.2138 559.423C58.9822 559.423 60.3743 559.807 61.3899 560.574C62.4055 561.334 63.0767 562.353 63.4034 563.631ZM67.2253 576V559.636H70.4107V576H67.2253ZM68.834 557.112C68.28 557.112 67.8042 556.927 67.4064 556.558C67.0158 556.181 66.8205 555.734 66.8205 555.215C66.8205 554.69 67.0158 554.242 67.4064 553.873C67.8042 553.496 68.28 553.308 68.834 553.308C69.388 553.308 69.8603 553.496 70.2509 553.873C70.6486 554.242 70.8475 554.69 70.8475 555.215C70.8475 555.734 70.6486 556.181 70.2509 556.558C69.8603 556.927 69.388 557.112 68.834 557.112ZM82.3345 559.636V562.193H73.3963V559.636H82.3345ZM75.7933 555.716H78.9787V571.195C78.9787 571.813 79.071 572.278 79.2557 572.591C79.4403 572.896 79.6783 573.106 79.9695 573.219C80.2678 573.326 80.5909 573.379 80.9389 573.379C81.1946 573.379 81.4183 573.362 81.6101 573.326C81.8018 573.29 81.951 573.262 82.0575 573.241L82.6328 575.872C82.4482 575.943 82.1854 576.014 81.8445 576.085C81.5036 576.163 81.0774 576.206 80.5661 576.213C79.728 576.227 78.9467 576.078 78.2223 575.766C77.4979 575.453 76.9119 574.97 76.4645 574.317C76.017 573.663 75.7933 572.843 75.7933 571.856V555.716ZM98.5597 576.362C97.5227 576.362 96.5852 576.17 95.7472 575.787C94.9091 575.396 94.245 574.832 93.755 574.093C93.272 573.354 93.0305 572.449 93.0305 571.376C93.0305 570.453 93.2081 569.693 93.5632 569.097C93.9183 568.5 94.3977 568.028 95.0014 567.68C95.6051 567.332 96.2798 567.069 97.0256 566.891C97.7713 566.714 98.5313 566.579 99.3054 566.487C100.286 566.373 101.081 566.281 101.692 566.21C102.303 566.131 102.746 566.007 103.023 565.837C103.3 565.666 103.439 565.389 103.439 565.006V564.931C103.439 564.001 103.176 563.28 102.651 562.768C102.132 562.257 101.358 562.001 100.328 562.001C99.2557 562.001 98.4105 562.239 97.7926 562.715C97.1818 563.184 96.7592 563.706 96.5249 564.281L93.5312 563.599C93.8864 562.605 94.4048 561.803 95.0866 561.192C95.7756 560.574 96.5675 560.126 97.4624 559.849C98.3572 559.565 99.2983 559.423 100.286 559.423C100.939 559.423 101.631 559.501 102.363 559.658C103.102 559.807 103.79 560.084 104.43 560.489C105.076 560.893 105.605 561.472 106.017 562.225C106.429 562.971 106.635 563.94 106.635 565.134V576H103.524V573.763H103.396C103.19 574.175 102.881 574.58 102.469 574.977C102.058 575.375 101.528 575.705 100.882 575.968C100.236 576.231 99.4616 576.362 98.5597 576.362ZM99.2521 573.805C100.133 573.805 100.886 573.631 101.511 573.283C102.143 572.935 102.622 572.481 102.949 571.92C103.283 571.352 103.45 570.744 103.45 570.098V567.989C103.336 568.102 103.116 568.209 102.789 568.308C102.469 568.401 102.104 568.482 101.692 568.553C101.28 568.617 100.879 568.678 100.488 568.734C100.097 568.784 99.7706 568.827 99.5078 568.862C98.8899 568.94 98.3253 569.072 97.8139 569.256C97.3097 569.441 96.9048 569.707 96.5994 570.055C96.3011 570.396 96.152 570.851 96.152 571.419C96.152 572.207 96.4432 572.804 97.0256 573.209C97.608 573.607 98.3501 573.805 99.2521 573.805ZM110.878 576V559.636H113.935V562.3H114.138C114.479 561.398 115.036 560.695 115.81 560.19C116.584 559.679 117.511 559.423 118.591 559.423C119.684 559.423 120.601 559.679 121.339 560.19C122.085 560.702 122.635 561.405 122.991 562.3H123.161C123.552 561.426 124.173 560.73 125.025 560.212C125.878 559.686 126.893 559.423 128.072 559.423C129.557 559.423 130.768 559.888 131.705 560.819C132.65 561.749 133.122 563.152 133.122 565.027V576H129.937V565.325C129.937 564.217 129.635 563.415 129.031 562.918C128.427 562.42 127.706 562.172 126.868 562.172C125.831 562.172 125.025 562.491 124.45 563.131C123.875 563.763 123.587 564.576 123.587 565.57V576H120.412V565.123C120.412 564.235 120.135 563.521 119.581 562.982C119.028 562.442 118.307 562.172 117.419 562.172C116.815 562.172 116.258 562.332 115.746 562.651C115.242 562.964 114.834 563.401 114.521 563.962C114.216 564.523 114.063 565.173 114.063 565.911V576H110.878ZM144.444 576.33C142.832 576.33 141.443 575.986 140.278 575.297C139.121 574.601 138.226 573.624 137.594 572.367C136.969 571.103 136.656 569.622 136.656 567.925C136.656 566.249 136.969 564.771 137.594 563.493C138.226 562.214 139.107 561.217 140.236 560.499C141.372 559.782 142.7 559.423 144.22 559.423C145.143 559.423 146.038 559.576 146.905 559.881C147.771 560.187 148.549 560.666 149.238 561.32C149.927 561.973 150.47 562.822 150.868 563.866C151.266 564.903 151.464 566.163 151.464 567.648V568.777H138.457V566.391H148.343C148.343 565.553 148.173 564.81 147.832 564.164C147.491 563.511 147.011 562.996 146.393 562.619C145.783 562.243 145.065 562.055 144.241 562.055C143.347 562.055 142.565 562.275 141.898 562.715C141.237 563.148 140.726 563.717 140.364 564.42C140.009 565.116 139.831 565.872 139.831 566.689V568.553C139.831 569.647 140.023 570.577 140.406 571.344C140.797 572.112 141.34 572.697 142.036 573.102C142.732 573.5 143.545 573.699 144.476 573.699C145.08 573.699 145.63 573.614 146.127 573.443C146.624 573.266 147.054 573.003 147.416 572.655C147.778 572.307 148.055 571.877 148.247 571.366L151.262 571.909C151.021 572.797 150.587 573.575 149.962 574.242C149.344 574.903 148.567 575.418 147.629 575.787C146.699 576.149 145.637 576.33 144.444 576.33ZM162.637 559.636V562.193H153.699V559.636H162.637ZM156.096 555.716H159.281V571.195C159.281 571.813 159.374 572.278 159.558 572.591C159.743 572.896 159.981 573.106 160.272 573.219C160.57 573.326 160.894 573.379 161.242 573.379C161.497 573.379 161.721 573.362 161.913 573.326C162.105 573.29 162.254 573.262 162.36 573.241L162.936 575.872C162.751 575.943 162.488 576.014 162.147 576.085C161.806 576.163 161.38 576.206 160.869 576.213C160.031 576.227 159.249 576.078 158.525 575.766C157.801 575.453 157.215 574.97 156.767 574.317C156.32 573.663 156.096 572.843 156.096 571.856V555.716ZM177.286 566.284V576H174.1V559.636H177.158V562.3H177.36C177.737 561.433 178.326 560.737 179.129 560.212C179.938 559.686 180.958 559.423 182.186 559.423C183.301 559.423 184.278 559.658 185.116 560.126C185.954 560.588 186.604 561.277 187.066 562.193C187.527 563.109 187.758 564.242 187.758 565.592V576H184.573V565.975C184.573 564.789 184.264 563.862 183.646 563.195C183.028 562.52 182.179 562.183 181.1 562.183C180.361 562.183 179.704 562.342 179.129 562.662C178.561 562.982 178.11 563.45 177.776 564.068C177.449 564.679 177.286 565.418 177.286 566.284ZM196.792 576.362C195.755 576.362 194.818 576.17 193.98 575.787C193.142 575.396 192.477 574.832 191.987 574.093C191.504 573.354 191.263 572.449 191.263 571.376C191.263 570.453 191.441 569.693 191.796 569.097C192.151 568.5 192.63 568.028 193.234 567.68C193.838 567.332 194.512 567.069 195.258 566.891C196.004 566.714 196.764 566.579 197.538 566.487C198.518 566.373 199.313 566.281 199.924 566.21C200.535 566.131 200.979 566.007 201.256 565.837C201.533 565.666 201.671 565.389 201.671 565.006V564.931C201.671 564.001 201.409 563.28 200.883 562.768C200.365 562.257 199.59 562.001 198.561 562.001C197.488 562.001 196.643 562.239 196.025 562.715C195.414 563.184 194.992 563.706 194.757 564.281L191.764 563.599C192.119 562.605 192.637 561.803 193.319 561.192C194.008 560.574 194.8 560.126 195.695 559.849C196.59 559.565 197.531 559.423 198.518 559.423C199.171 559.423 199.864 559.501 200.595 559.658C201.334 559.807 202.023 560.084 202.662 560.489C203.308 560.893 203.838 561.472 204.249 562.225C204.661 562.971 204.867 563.94 204.867 565.134V576H201.757V573.763H201.629C201.423 574.175 201.114 574.58 200.702 574.977C200.29 575.375 199.761 575.705 199.115 575.968C198.468 576.231 197.694 576.362 196.792 576.362ZM197.485 573.805C198.365 573.805 199.118 573.631 199.743 573.283C200.375 572.935 200.855 572.481 201.181 571.92C201.515 571.352 201.682 570.744 201.682 570.098V567.989C201.568 568.102 201.348 568.209 201.021 568.308C200.702 568.401 200.336 568.482 199.924 568.553C199.512 568.617 199.111 568.678 198.72 568.734C198.33 568.784 198.003 568.827 197.74 568.862C197.122 568.94 196.558 569.072 196.046 569.256C195.542 569.441 195.137 569.707 194.832 570.055C194.534 570.396 194.384 570.851 194.384 571.419C194.384 572.207 194.676 572.804 195.258 573.209C195.84 573.607 196.583 573.805 197.485 573.805ZM216.749 559.636V562.193H207.81V559.636H216.749ZM210.207 555.716H213.393V571.195C213.393 571.813 213.485 572.278 213.67 572.591C213.854 572.896 214.092 573.106 214.384 573.219C214.682 573.326 215.005 573.379 215.353 573.379C215.609 573.379 215.832 573.362 216.024 573.326C216.216 573.29 216.365 573.262 216.472 573.241L217.047 575.872C216.862 575.943 216.599 576.014 216.259 576.085C215.918 576.163 215.491 576.206 214.98 576.213C214.142 576.227 213.361 576.078 212.636 575.766C211.912 575.453 211.326 574.97 210.879 574.317C210.431 573.663 210.207 572.843 210.207 571.856V555.716ZM228.212 559.636H231.397V577.065C231.397 578.159 231.198 579.082 230.8 579.835C230.41 580.588 229.827 581.16 229.053 581.55C228.286 581.941 227.338 582.136 226.209 582.136C226.095 582.136 225.989 582.136 225.889 582.136C225.783 582.136 225.673 582.133 225.559 582.126V579.388C225.658 579.388 225.747 579.388 225.825 579.388C225.896 579.388 225.978 579.388 226.07 579.388C226.823 579.388 227.366 579.185 227.7 578.781C228.041 578.383 228.212 577.804 228.212 577.044V559.636ZM229.788 557.112C229.234 557.112 228.759 556.927 228.361 556.558C227.97 556.181 227.775 555.734 227.775 555.215C227.775 554.69 227.97 554.242 228.361 553.873C228.759 553.496 229.234 553.308 229.788 553.308C230.342 553.308 230.815 553.496 231.205 553.873C231.603 554.242 231.802 554.69 231.802 555.215C231.802 555.734 231.603 556.181 231.205 556.558C230.815 556.927 230.342 557.112 229.788 557.112ZM240.444 576.362C239.407 576.362 238.47 576.17 237.632 575.787C236.794 575.396 236.13 574.832 235.64 574.093C235.157 573.354 234.915 572.449 234.915 571.376C234.915 570.453 235.093 569.693 235.448 569.097C235.803 568.5 236.282 568.028 236.886 567.68C237.49 567.332 238.165 567.069 238.91 566.891C239.656 566.714 240.416 566.579 241.19 566.487C242.17 566.373 242.966 566.281 243.577 566.21C244.187 566.131 244.631 566.007 244.908 565.837C245.185 565.666 245.324 565.389 245.324 565.006V564.931C245.324 564.001 245.061 563.28 244.535 562.768C244.017 562.257 243.243 562.001 242.213 562.001C241.14 562.001 240.295 562.239 239.677 562.715C239.067 563.184 238.644 563.706 238.41 564.281L235.416 563.599C235.771 562.605 236.29 561.803 236.971 561.192C237.66 560.574 238.452 560.126 239.347 559.849C240.242 559.565 241.183 559.423 242.17 559.423C242.824 559.423 243.516 559.501 244.248 559.658C244.986 559.807 245.675 560.084 246.314 560.489C246.961 560.893 247.49 561.472 247.902 562.225C248.314 562.971 248.52 563.94 248.52 565.134V576H245.409V573.763H245.281C245.075 574.175 244.766 574.58 244.354 574.977C243.942 575.375 243.413 575.705 242.767 575.968C242.121 576.231 241.346 576.362 240.444 576.362ZM241.137 573.805C242.018 573.805 242.77 573.631 243.395 573.283C244.028 572.935 244.507 572.481 244.834 571.92C245.167 571.352 245.334 570.744 245.334 570.098V567.989C245.221 568.102 245.001 568.209 244.674 568.308C244.354 568.401 243.988 568.482 243.577 568.553C243.165 568.617 242.763 568.678 242.373 568.734C241.982 568.784 241.655 568.827 241.393 568.862C240.775 568.94 240.21 569.072 239.699 569.256C239.194 569.441 238.79 569.707 238.484 570.055C238.186 570.396 238.037 570.851 238.037 571.419C238.037 572.207 238.328 572.804 238.91 573.209C239.493 573.607 240.235 573.805 241.137 573.805ZM255.948 566.284V576H252.762V559.636H255.82V562.3H256.022C256.399 561.433 256.988 560.737 257.791 560.212C258.6 559.686 259.62 559.423 260.848 559.423C261.963 559.423 262.94 559.658 263.778 560.126C264.616 560.588 265.266 561.277 265.728 562.193C266.189 563.109 266.42 564.242 266.42 565.592V576H263.235V565.975C263.235 564.789 262.926 563.862 262.308 563.195C261.69 562.52 260.841 562.183 259.762 562.183C259.023 562.183 258.366 562.342 257.791 562.662C257.223 562.982 256.772 563.45 256.438 564.068C256.111 564.679 255.948 565.418 255.948 566.284ZM275.454 576.362C274.417 576.362 273.48 576.17 272.642 575.787C271.804 575.396 271.14 574.832 270.65 574.093C270.167 573.354 269.925 572.449 269.925 571.376C269.925 570.453 270.103 569.693 270.458 569.097C270.813 568.5 271.292 568.028 271.896 567.68C272.5 567.332 273.174 567.069 273.92 566.891C274.666 566.714 275.426 566.579 276.2 566.487C277.18 566.373 277.975 566.281 278.586 566.21C279.197 566.131 279.641 566.007 279.918 565.837C280.195 565.666 280.333 565.389 280.333 565.006V564.931C280.333 564.001 280.071 563.28 279.545 562.768C279.027 562.257 278.252 562.001 277.223 562.001C276.15 562.001 275.305 562.239 274.687 562.715C274.076 563.184 273.654 563.706 273.419 564.281L270.426 563.599C270.781 562.605 271.299 561.803 271.981 561.192C272.67 560.574 273.462 560.126 274.357 559.849C275.252 559.565 276.193 559.423 277.18 559.423C277.833 559.423 278.526 559.501 279.257 559.658C279.996 559.807 280.685 560.084 281.324 560.489C281.971 560.893 282.5 561.472 282.912 562.225C283.324 562.971 283.529 563.94 283.529 565.134V576H280.419V573.763H280.291C280.085 574.175 279.776 574.58 279.364 574.977C278.952 575.375 278.423 575.705 277.777 575.968C277.13 576.231 276.356 576.362 275.454 576.362ZM276.147 573.805C277.027 573.805 277.78 573.631 278.405 573.283C279.037 572.935 279.517 572.481 279.843 571.92C280.177 571.352 280.344 570.744 280.344 570.098V567.989C280.23 568.102 280.01 568.209 279.684 568.308C279.364 568.401 278.998 568.482 278.586 568.553C278.174 568.617 277.773 568.678 277.382 568.734C276.992 568.784 276.665 568.827 276.402 568.862C275.784 568.94 275.22 569.072 274.708 569.256C274.204 569.441 273.799 569.707 273.494 570.055C273.196 570.396 273.047 570.851 273.047 571.419C273.047 572.207 273.338 572.804 273.92 573.209C274.502 573.607 275.245 573.805 276.147 573.805ZM287.772 576V559.636H290.83V562.3H291.032C291.373 561.398 291.931 560.695 292.705 560.19C293.479 559.679 294.406 559.423 295.485 559.423C296.579 559.423 297.495 559.679 298.234 560.19C298.98 560.702 299.53 561.405 299.885 562.3H300.056C300.446 561.426 301.068 560.73 301.92 560.212C302.772 559.686 303.788 559.423 304.967 559.423C306.451 559.423 307.662 559.888 308.6 560.819C309.544 561.749 310.017 563.152 310.017 565.027V576H306.831V565.325C306.831 564.217 306.529 563.415 305.926 562.918C305.322 562.42 304.601 562.172 303.763 562.172C302.726 562.172 301.92 562.491 301.345 563.131C300.769 563.763 300.482 564.576 300.482 565.57V576H297.307V565.123C297.307 564.235 297.03 563.521 296.476 562.982C295.922 562.442 295.201 562.172 294.313 562.172C293.71 562.172 293.152 562.332 292.641 562.651C292.137 562.964 291.728 563.401 291.416 563.962C291.11 564.523 290.958 565.173 290.958 565.911V576H287.772ZM51.1413 612V595.636H54.2202V598.236H54.3906C54.6889 597.355 55.2145 596.663 55.9673 596.158C56.7273 595.647 57.5866 595.391 58.5455 595.391C58.7443 595.391 58.9787 595.398 59.2486 595.413C59.5256 595.427 59.7422 595.445 59.8984 595.466V598.513C59.7706 598.477 59.5433 598.438 59.2166 598.396C58.8899 598.346 58.5632 598.321 58.2365 598.321C57.4837 598.321 56.8125 598.481 56.223 598.8C55.6406 599.113 55.179 599.55 54.8381 600.111C54.4972 600.665 54.3267 601.297 54.3267 602.007V612H51.1413ZM69.1216 612.33C67.5094 612.33 66.1209 611.986 64.9561 611.297C63.7985 610.601 62.9036 609.624 62.2715 608.367C61.6465 607.103 61.334 605.622 61.334 603.925C61.334 602.249 61.6465 600.771 62.2715 599.493C62.9036 598.214 63.7843 597.217 64.9135 596.499C66.0499 595.782 67.378 595.423 68.8979 595.423C69.8212 595.423 70.7161 595.576 71.5826 595.881C72.449 596.187 73.2267 596.666 73.9157 597.32C74.6046 597.973 75.1479 598.822 75.5456 599.866C75.9434 600.903 76.1422 602.163 76.1422 603.648V604.777H63.1344V602.391H73.0208C73.0208 601.553 72.8503 600.81 72.5094 600.164C72.1685 599.511 71.6891 598.996 71.0712 598.619C70.4604 598.243 69.7431 598.055 68.9192 598.055C68.0243 598.055 67.2431 598.275 66.5755 598.715C65.915 599.148 65.4036 599.717 65.0414 600.42C64.6863 601.116 64.5087 601.872 64.5087 602.689V604.553C64.5087 605.647 64.7005 606.577 65.084 607.344C65.4746 608.112 66.0179 608.697 66.714 609.102C67.41 609.5 68.2232 609.699 69.1536 609.699C69.7573 609.699 70.3077 609.614 70.8049 609.443C71.302 609.266 71.7317 609.003 72.0939 608.655C72.4561 608.307 72.7331 607.877 72.9249 607.366L75.9398 607.909C75.6983 608.797 75.2651 609.575 74.6401 610.242C74.0222 610.903 73.2445 611.418 72.307 611.787C71.3766 612.149 70.3148 612.33 69.1216 612.33ZM79.6765 612V595.636H82.734V598.3H82.9364C83.2773 597.398 83.8349 596.695 84.609 596.19C85.3832 595.679 86.31 595.423 87.3896 595.423C88.4833 595.423 89.3995 595.679 90.1381 596.19C90.8839 596.702 91.4343 597.405 91.7894 598.3H91.9599C92.3505 597.426 92.9719 596.73 93.8242 596.212C94.6765 595.686 95.6921 595.423 96.8711 595.423C98.3555 595.423 99.5664 595.888 100.504 596.819C101.449 597.749 101.921 599.152 101.921 601.027V612H98.7354V601.325C98.7354 600.217 98.4336 599.415 97.8299 598.918C97.2262 598.42 96.5053 598.172 95.6673 598.172C94.6303 598.172 93.8242 598.491 93.2489 599.131C92.6737 599.763 92.386 600.576 92.386 601.57V612H89.2113V601.123C89.2113 600.235 88.9343 599.521 88.3803 598.982C87.8263 598.442 87.1055 598.172 86.2177 598.172C85.614 598.172 85.0565 598.332 84.5451 598.651C84.0408 598.964 83.6325 599.401 83.32 599.962C83.0146 600.523 82.8619 601.173 82.8619 601.911V612H79.6765ZM118.452 599.631L115.565 600.143C115.444 599.773 115.253 599.422 114.99 599.088C114.734 598.754 114.386 598.481 113.946 598.268C113.506 598.055 112.955 597.948 112.295 597.948C111.393 597.948 110.64 598.151 110.036 598.555C109.432 598.953 109.131 599.468 109.131 600.1C109.131 600.647 109.333 601.087 109.738 601.421C110.143 601.755 110.796 602.028 111.698 602.241L114.297 602.838C115.803 603.186 116.925 603.722 117.664 604.447C118.403 605.171 118.772 606.112 118.772 607.27C118.772 608.25 118.488 609.124 117.92 609.891C117.358 610.651 116.574 611.247 115.565 611.68C114.564 612.114 113.403 612.33 112.081 612.33C110.249 612.33 108.754 611.94 107.596 611.158C106.439 610.37 105.729 609.251 105.466 607.803L108.545 607.334C108.736 608.136 109.131 608.744 109.727 609.156C110.324 609.56 111.101 609.763 112.06 609.763C113.104 609.763 113.939 609.546 114.564 609.113C115.189 608.673 115.501 608.136 115.501 607.504C115.501 606.993 115.309 606.563 114.926 606.215C114.55 605.867 113.971 605.604 113.189 605.427L110.42 604.82C108.893 604.472 107.763 603.918 107.032 603.158C106.307 602.398 105.945 601.435 105.945 600.271C105.945 599.305 106.215 598.46 106.755 597.735C107.295 597.011 108.04 596.446 108.992 596.041C109.944 595.629 111.034 595.423 112.263 595.423C114.031 595.423 115.423 595.807 116.439 596.574C117.454 597.334 118.126 598.353 118.452 599.631ZM132.64 605.214V595.636H135.836V612H132.704V609.166H132.533C132.157 610.04 131.553 610.768 130.722 611.35C129.898 611.925 128.872 612.213 127.643 612.213C126.592 612.213 125.662 611.982 124.852 611.521C124.05 611.052 123.418 610.359 122.956 609.443C122.501 608.527 122.274 607.394 122.274 606.045V595.636H125.46V605.661C125.46 606.776 125.768 607.664 126.386 608.325C127.004 608.985 127.807 609.315 128.794 609.315C129.391 609.315 129.984 609.166 130.573 608.868C131.17 608.57 131.663 608.119 132.054 607.515C132.452 606.911 132.647 606.144 132.64 605.214ZM140.116 612V595.636H143.173V598.3H143.376C143.717 597.398 144.274 596.695 145.048 596.19C145.823 595.679 146.749 595.423 147.829 595.423C148.923 595.423 149.839 595.679 150.578 596.19C151.323 596.702 151.874 597.405 152.229 598.3H152.399C152.79 597.426 153.411 596.73 154.264 596.212C155.116 595.686 156.132 595.423 157.311 595.423C158.795 595.423 160.006 595.888 160.943 596.819C161.888 597.749 162.36 599.152 162.36 601.027V612H159.175V601.325C159.175 600.217 158.873 599.415 158.269 598.918C157.666 598.42 156.945 598.172 156.107 598.172C155.07 598.172 154.264 598.491 153.688 599.131C153.113 599.763 152.825 600.576 152.825 601.57V612H149.651V601.123C149.651 600.235 149.374 599.521 148.82 598.982C148.266 598.442 147.545 598.172 146.657 598.172C146.053 598.172 145.496 598.332 144.985 598.651C144.48 598.964 144.072 599.401 143.759 599.962C143.454 600.523 143.301 601.173 143.301 601.911V612H140.116Z" fill="white"/>
<defs>
<filter id="filter0_fn_660_11170" x="-262" y="-251" width="964" height="1262" filterUnits="userSpaceOnUse" color-interpolation-filters="sRGB">
<feFlood flood-opacity="0" result="BackgroundImageFix"/>
<feBlend mode="normal" in="SourceGraphic" in2="BackgroundImageFix" result="shape"/>
<feGaussianBlur stdDeviation="72.5" result="effect1_foregroundBlur_660_11170"/>
<feTurbulence type="fractalNoise" baseFrequency="1 1" stitchTiles="stitch" numOctaves="3" result="noise" seed="8541" />
<feComponentTransfer in="noise" result="coloredNoise1">
<feFuncR type="linear" slope="2" intercept="-0.5" />
<feFuncG type="linear" slope="2" intercept="-0.5" />
<feFuncB type="linear" slope="2" intercept="-0.5" />
<feFuncA type="discrete" tableValues="1 1 1 1 1 1 1 1 1 1 1 1 1 1 1 1 1 1 1 1 1 1 1 1 1 1 1 1 1 1 1 1 1 1 1 1 1 1 1 1 1 1 1 1 1 1 1 1 1 1 1 0 0 0 0 0 0 0 0 0 0 0 0 0 0 0 0 0 0 0 0 0 0 0 0 0 0 0 0 0 0 0 0 0 0 0 0 0 0 0 0 0 0 0 0 0 0 0 0 0 "/>
</feComponentTransfer>
<feComposite operator="in" in2="effect1_foregroundBlur_660_11170" in="coloredNoise1" result="noise1Clipped" />
<feComponentTransfer in="noise1Clipped" result="color1">
<feFuncA type="table" tableValues="0 0.3" />
</feComponentTransfer>
<feMerge result="effect2_noise_660_11170">
<feMergeNode in="effect1_foregroundBlur_660_11170" />
<feMergeNode in="color1" />
</feMerge>
</filter>
<filter id="filter1_f_660_11170" x="185" y="411" width="472" height="491" filterUnits="userSpaceOnUse" color-interpolation-filters="sRGB">
<feFlood flood-opacity="0" result="BackgroundImageFix"/>
<feBlend mode="normal" in="SourceGraphic" in2="BackgroundImageFix" result="shape"/>
<feGaussianBlur stdDeviation="50" result="effect1_foregroundBlur_660_11170"/>
</filter>
<linearGradient id="paint0_linear_660_11170" x1="230" y1="-73" x2="230" y2="281" gradientUnits="userSpaceOnUse">
<stop stop-color="#FE8A01"/>
<stop offset="0.490385" stop-color="#FFAD33"/>
<stop offset="1" stop-color="#FED7A1"/>
</linearGradient>
<linearGradient id="paint1_linear_660_11170" x1="313.359" y1="152.194" x2="77.593" y2="677.408" gradientUnits="userSpaceOnUse">
<stop stop-color="white"/>
<stop offset="0.446257" stop-color="#1120B0"/>
<stop offset="1" stop-color="#7B83D4"/>
</linearGradient>
<linearGradient id="paint2_linear_660_11170" x1="421" y1="511" x2="421" y2="802" gradientUnits="userSpaceOnUse">
<stop stop-color="#FE8A01"/>
<stop offset="0.490385" stop-color="#FFAD33"/>
<stop offset="1" stop-color="#FED7A1"/>
</linearGradient>
<linearGradient id="paint3_linear_660_11170" x1="418.5" y1="-66" x2="418.5" y2="271" gradientUnits="userSpaceOnUse">
<stop stop-color="#7E87DD"/>
<stop offset="1" stop-color="#1120B0"/>
</linearGradient>
<linearGradient id="paint4_linear_660_11170" x1="48" y1="263" x2="47.4906" y2="664.301" gradientUnits="userSpaceOnUse">
<stop stop-color="#BEC3EF"/>
<stop offset="1" stop-color="#FFE11F"/>
</linearGradient>
</defs>
</svg>
