<svg width="467" height="661" viewBox="0 0 467 661" fill="none" xmlns="http://www.w3.org/2000/svg">
<rect width="467" height="660" rx="15" fill="#D5D5D5"/>
<path d="M61.3513 36.0952L58.4069 33.1509C100.119 24.3179 78.5264 94.4917 41.7223 47.8726L44.6663 45.4191L52.5548 53.5919C77.0911 74.6931 88.3409 33.1509 61.3513 36.0952Z" fill="white"/>
<path d="M68.7121 47.8726L65.7678 50.8171L56.169 42.1782C52.7759 39.1244 48.9074 35.9624 44.348 36.1891C30.7555 36.8651 28.4856 60.9965 48.5921 60.1409L51.046 63.0852C16.665 68.1959 27.1506 24.4805 50.8542 33.1389C53.6951 34.1766 56.0895 36.1518 58.306 38.2098L68.7121 47.8726Z" fill="white"/>
<rect x="50.4316" y="40.834" width="18.5804" height="3.92567" rx="0.283144" transform="rotate(45.1572 50.4316 40.834)" fill="white"/>
<path d="M66 613.528C66 613.011 66 612.493 66.2628 588.159C66.5257 563.824 67.0514 515.689 68.2115 486.811C69.3717 457.934 71.1504 449.772 73.6284 441.86C78.5061 426.286 87.0054 412.002 96.8096 398.435C106.772 384.65 119.653 373.94 130.905 364.565C140.69 356.412 150.603 351.762 159.536 348.164C164.008 346.362 168.587 345.214 189.178 343.732C209.769 342.251 246.292 340.625 275.51 332.369C304.728 324.112 325.533 309.273 337.915 297.671C356.199 280.539 358.087 266.216 359.848 257.201C362.122 245.557 360.756 235.734 358.741 230.035C356.563 223.873 349.543 219.573 331.896 212.065C317.941 206.127 292.786 198.497 278.829 193.58C262.442 187.808 258.878 184.648 256.391 181.627C250.872 174.921 253.131 161.496 256.827 148.039C259.016 140.067 274.753 123.931 296.807 100.514C314.769 81.4425 329.524 72.4226 340.262 66.5329C346.618 63.3442 354.813 59.7498 364.09 56.7355C373.367 53.7211 383.478 51.3958 393.895 49" stroke="#CACACA" stroke-width="94" stroke-linecap="round"/>
<ellipse cx="386.5" cy="568" rx="80.5" ry="86" fill="#CACACA"/>
</svg>
