<svg width="24" height="24" viewBox="0 0 24 24" fill="none" xmlns="http://www.w3.org/2000/svg">
<path d="M14.2954 4.98004L19.0194 9.70504C19.2962 9.98178 19.4857 10.3337 19.5645 10.7171C19.6432 11.1005 19.6077 11.4986 19.4624 11.862L17.0974 17.775C16.9647 18.106 16.7459 18.3956 16.4637 18.6136C16.1815 18.8316 15.8462 18.9702 15.4924 19.015L10.4134 19.65C10.2827 19.6654 10.146 19.684 10.0034 19.706L9.55937 19.778L9.32737 19.82L8.60437 19.96L8.10937 20.065L7.36437 20.233L6.40937 20.461L4.85737 20.857L4.21137 21.031C4.04835 21.0759 3.87668 21.0791 3.7121 21.0403C3.54753 21.0015 3.39531 20.9221 3.26942 20.8092C3.14352 20.6964 3.04797 20.5537 2.99153 20.3944C2.93509 20.235 2.91956 20.064 2.94637 19.897L2.98037 19.751L3.27537 18.639L3.53937 17.591L3.76737 16.636L3.93437 15.891L4.03937 15.395L4.18037 14.673L4.26037 14.216L4.32437 13.788L4.98437 8.50804C5.02929 8.15415 5.16804 7.81871 5.38625 7.5365C5.60446 7.25429 5.89418 7.03558 6.22537 6.90304L12.1384 4.53804C12.5018 4.39271 12.8999 4.35721 13.2833 4.43596C13.6667 4.51471 14.0186 4.70323 14.2954 4.98004ZM10.5854 10.585C10.3327 10.8378 10.1524 11.1537 10.0633 11.4998C9.97411 11.846 9.97933 12.2096 10.0784 12.553C10.0055 12.5957 9.93827 12.6475 9.87837 12.707L5.82037 16.765C5.79378 16.792 5.7754 16.826 5.76737 16.863L5.67837 17.248L5.50037 17.991L5.41437 18.342C5.40557 18.3758 5.40575 18.4113 5.41489 18.4449C5.42403 18.4786 5.44181 18.5093 5.46648 18.5339C5.49114 18.5586 5.52183 18.5764 5.55549 18.5855C5.58915 18.5947 5.62462 18.5948 5.65837 18.586L6.37537 18.411L7.13837 18.233C7.17515 18.2246 7.20878 18.2058 7.23537 18.179L11.2934 14.121C11.3529 14.0615 11.4046 13.9946 11.4474 13.922C11.7862 14.0195 12.1448 14.0256 12.4868 13.9397C12.8287 13.8539 13.1419 13.6792 13.3946 13.4334C13.6473 13.1875 13.8306 12.8792 13.9257 12.5397C14.0209 12.2002 14.0246 11.8416 13.9365 11.5002C13.8484 11.1588 13.6717 10.8468 13.4241 10.5957C13.1766 10.3447 12.8671 10.1635 12.527 10.0706C12.1869 9.97767 11.8283 9.97632 11.4875 10.0667C11.1467 10.157 10.8358 10.3358 10.5864 10.585H10.5854ZM15.2434 3.10104C15.4154 2.92872 15.6445 2.8251 15.8875 2.80964C16.1305 2.79417 16.3708 2.86792 16.5634 3.01704L16.6574 3.10104L20.9004 7.34304C21.0816 7.52258 21.1874 7.76461 21.1961 8.01959C21.2047 8.27457 21.1156 8.52321 20.9469 8.71462C20.7782 8.90604 20.5428 9.02574 20.2887 9.04925C20.0347 9.07275 19.7813 8.99826 19.5804 8.84104L19.4854 8.75704L15.2434 4.51504C15.0559 4.32751 14.9506 4.07321 14.9506 3.80804C14.9506 3.54288 15.0559 3.28857 15.2434 3.10104Z" fill="white"/>
</svg>
