<svg width="124" height="34" viewBox="0 0 124 34" fill="none" xmlns="http://www.w3.org/2000/svg">
<path d="M34.2772 4.33903L31.1575 1.2194C75.3524 -8.13941 52.4747 66.2119 13.4796 16.8176L16.599 14.218L24.9571 22.8773C50.954 45.2347 62.8735 1.2194 34.2772 4.33903Z" fill="white"/>
<path d="M42.0763 16.8176L38.9566 19.9373L28.7864 10.7842C25.1913 7.54854 21.0925 4.19827 16.2617 4.43851C1.86001 5.15474 -0.545017 30.7227 20.7585 29.8162L23.3585 32.9358C-13.0693 38.3507 -1.95954 -7.96712 23.1552 1.2067C26.1653 2.30622 28.7022 4.39892 31.0506 6.57951L42.0763 16.8176Z" fill="white"/>
<path d="M22.494 9.57045C22.6115 9.45362 22.8014 9.45414 22.9183 9.57162L36.3774 23.1048C36.4943 23.2223 36.4937 23.4122 36.3763 23.5291L33.8525 26.039C33.735 26.1558 33.5451 26.1553 33.4282 26.0378L19.9691 12.5047C19.8523 12.3872 19.8528 12.1972 19.9703 12.0804L22.494 9.57045Z" fill="white"/>
<path d="M72.7711 22.3863H66.5406L65.5418 25.3351H61.2851L67.3254 8.64118H72.0339L78.0741 25.3351H73.7699L72.7711 22.3863ZM71.7247 19.2473L69.6558 13.1357L67.6107 19.2473H71.7247Z" fill="white"/>
<path d="M79.2228 16.9644C79.2228 15.3156 79.5796 13.8491 80.293 12.565C81.0064 11.265 81.9972 10.2583 83.2655 9.54484C84.5497 8.81557 86.0003 8.45094 87.6174 8.45094C89.5991 8.45094 91.2954 8.97411 92.7064 10.0204C94.1174 11.0668 95.0607 12.4936 95.5363 14.3009H91.0655C90.7326 13.6034 90.257 13.0723 89.6387 12.7076C89.0363 12.343 88.3466 12.1607 87.5698 12.1607C86.3174 12.1607 85.3027 12.5967 84.5259 13.4686C83.7491 14.3406 83.3607 15.5058 83.3607 16.9644C83.3607 18.4229 83.7491 19.5881 84.5259 20.4601C85.3027 21.332 86.3174 21.768 87.5698 21.768C88.3466 21.768 89.0363 21.5857 89.6387 21.2211C90.257 20.8564 90.7326 20.3253 91.0655 19.6278H95.5363C95.0607 21.4351 94.1174 22.8619 92.7064 23.9083C91.2954 24.9387 89.5991 25.454 87.6174 25.454C86.0003 25.454 84.5497 25.0973 83.2655 24.3839C81.9972 23.6546 81.0064 22.6479 80.293 21.3637C79.5796 20.0796 79.2228 18.6131 79.2228 16.9644Z" fill="white"/>
<path d="M116.932 8.64118V25.3351H112.866V15.3235L109.132 25.3351H105.85L102.093 15.2997V25.3351H98.0265V8.64118H102.83L107.515 20.1985L112.152 8.64118H116.932Z" fill="white"/>
<path d="M123.923 8.64118V25.3351H119.856V8.64118H123.923Z" fill="white"/>
</svg>
