<svg width="22" height="22" viewBox="0 0 22 22" fill="none" xmlns="http://www.w3.org/2000/svg">
<path d="M10.9993 8.25C10.27 8.25 9.57053 8.53973 9.0548 9.05546C8.53908 9.57118 8.24935 10.2707 8.24935 11C8.24935 11.7293 8.53908 12.4288 9.0548 12.9445C9.57053 13.4603 10.27 13.75 10.9993 13.75C11.7287 13.75 12.4282 13.4603 12.9439 12.9445C13.4596 12.4288 13.7493 11.7293 13.7493 11C13.7493 10.2707 13.4596 9.57118 12.9439 9.05546C12.4282 8.53973 11.7287 8.25 10.9993 8.25ZM10.9993 15.5833C9.78377 15.5833 8.61798 15.1004 7.75844 14.2409C6.8989 13.3814 6.41602 12.2156 6.41602 11C6.41602 9.78442 6.8989 8.61864 7.75844 7.75909C8.61798 6.89955 9.78377 6.41667 10.9993 6.41667C12.2149 6.41667 13.3807 6.89955 14.2403 7.75909C15.0998 8.61864 15.5827 9.78442 15.5827 11C15.5827 12.2156 15.0998 13.3814 14.2403 14.2409C13.3807 15.1004 12.2149 15.5833 10.9993 15.5833ZM10.9993 4.125C6.41602 4.125 2.50185 6.97583 0.916016 11C2.50185 15.0242 6.41602 17.875 10.9993 17.875C15.5827 17.875 19.4968 15.0242 21.0827 11C19.4968 6.97583 15.5827 4.125 10.9993 4.125Z" fill="black"/>
</svg>
